<mxfile host="app.diagrams.net" agent="Mozilla/5.0 (X11; Linux x86_64) AppleWebKit/537.36 (KHTML, like Gecko) Chrome/137.0.0.0 Safari/537.36" version="27.2.0">
  <diagram name="Page-1" id="sIyHkmCUoe7qzKjA--RF">
    <mxGraphModel dx="1435" dy="719" grid="1" gridSize="10" guides="1" tooltips="1" connect="1" arrows="1" fold="1" page="1" pageScale="1" pageWidth="850" pageHeight="1100" math="0" shadow="0">
      <root>
        <mxCell id="0" />
        <mxCell id="1" parent="0" />
        <mxCell id="R__OtMXFOcVmuzIkH4cY-37" value="" style="rounded=0;whiteSpace=wrap;html=1;" vertex="1" parent="1">
          <mxGeometry x="-20" y="60" width="600" height="710" as="geometry" />
        </mxCell>
        <mxCell id="R__OtMXFOcVmuzIkH4cY-22" value="" style="rounded=0;whiteSpace=wrap;html=1;fillColor=#ffe6cc;strokeColor=#d79b00;dashed=1;dashPattern=1 2;" vertex="1" parent="1">
          <mxGeometry x="20" y="100" width="340" height="120" as="geometry" />
        </mxCell>
        <mxCell id="R__OtMXFOcVmuzIkH4cY-11" value="" style="rounded=0;whiteSpace=wrap;html=1;dashed=1;dashPattern=12 12;fillColor=#f5f5f5;strokeColor=#666666;fontColor=#333333;" vertex="1" parent="1">
          <mxGeometry x="150" y="370" width="340" height="340" as="geometry" />
        </mxCell>
        <mxCell id="R__OtMXFOcVmuzIkH4cY-10" style="edgeStyle=orthogonalEdgeStyle;rounded=0;orthogonalLoop=1;jettySize=auto;html=1;entryX=0.12;entryY=-0.017;entryDx=0;entryDy=0;entryPerimeter=0;" edge="1" parent="1" source="R__OtMXFOcVmuzIkH4cY-1" target="R__OtMXFOcVmuzIkH4cY-4">
          <mxGeometry relative="1" as="geometry">
            <mxPoint x="270" y="260" as="targetPoint" />
            <Array as="points">
              <mxPoint x="135" y="240" />
              <mxPoint x="273" y="240" />
            </Array>
          </mxGeometry>
        </mxCell>
        <mxCell id="R__OtMXFOcVmuzIkH4cY-1" value="gui_pose_issuer" style="rounded=0;whiteSpace=wrap;html=1;" vertex="1" parent="1">
          <mxGeometry x="80" y="130" width="110" height="50" as="geometry" />
        </mxCell>
        <mxCell id="R__OtMXFOcVmuzIkH4cY-9" style="edgeStyle=orthogonalEdgeStyle;rounded=0;orthogonalLoop=1;jettySize=auto;html=1;entryX=0.25;entryY=0;entryDx=0;entryDy=0;" edge="1" parent="1" source="R__OtMXFOcVmuzIkH4cY-2" target="R__OtMXFOcVmuzIkH4cY-4">
          <mxGeometry relative="1" as="geometry" />
        </mxCell>
        <mxCell id="R__OtMXFOcVmuzIkH4cY-2" value="clock_pose_issuer" style="rounded=0;whiteSpace=wrap;html=1;" vertex="1" parent="1">
          <mxGeometry x="233" y="130" width="110" height="50" as="geometry" />
        </mxCell>
        <mxCell id="R__OtMXFOcVmuzIkH4cY-36" style="edgeStyle=orthogonalEdgeStyle;rounded=0;orthogonalLoop=1;jettySize=auto;html=1;entryX=0.5;entryY=0;entryDx=0;entryDy=0;" edge="1" parent="1" source="R__OtMXFOcVmuzIkH4cY-4" target="R__OtMXFOcVmuzIkH4cY-7">
          <mxGeometry relative="1" as="geometry" />
        </mxCell>
        <mxCell id="R__OtMXFOcVmuzIkH4cY-4" value="motion_controller" style="rounded=0;whiteSpace=wrap;html=1;" vertex="1" parent="1">
          <mxGeometry x="260" y="280" width="110" height="50" as="geometry" />
        </mxCell>
        <mxCell id="R__OtMXFOcVmuzIkH4cY-30" style="edgeStyle=orthogonalEdgeStyle;rounded=0;orthogonalLoop=1;jettySize=auto;html=1;entryX=0.75;entryY=0;entryDx=0;entryDy=0;" edge="1" parent="1" source="R__OtMXFOcVmuzIkH4cY-6" target="R__OtMXFOcVmuzIkH4cY-4">
          <mxGeometry relative="1" as="geometry">
            <Array as="points">
              <mxPoint x="315" y="740" />
              <mxPoint x="520" y="740" />
              <mxPoint x="520" y="240" />
              <mxPoint x="343" y="240" />
            </Array>
          </mxGeometry>
        </mxCell>
        <mxCell id="R__OtMXFOcVmuzIkH4cY-35" style="edgeStyle=orthogonalEdgeStyle;rounded=0;orthogonalLoop=1;jettySize=auto;html=1;entryX=0.75;entryY=0;entryDx=0;entryDy=0;" edge="1" parent="1" source="R__OtMXFOcVmuzIkH4cY-6" target="R__OtMXFOcVmuzIkH4cY-7">
          <mxGeometry relative="1" as="geometry">
            <Array as="points">
              <mxPoint x="315" y="690" />
              <mxPoint x="425" y="690" />
              <mxPoint x="425" y="400" />
              <mxPoint x="360" y="400" />
            </Array>
          </mxGeometry>
        </mxCell>
        <mxCell id="R__OtMXFOcVmuzIkH4cY-6" value="turtlesim_pose_transformer" style="rounded=0;whiteSpace=wrap;html=1;" vertex="1" parent="1">
          <mxGeometry x="235" y="610" width="160" height="50" as="geometry" />
        </mxCell>
        <mxCell id="R__OtMXFOcVmuzIkH4cY-34" style="edgeStyle=orthogonalEdgeStyle;rounded=0;orthogonalLoop=1;jettySize=auto;html=1;entryX=0.5;entryY=0;entryDx=0;entryDy=0;" edge="1" parent="1" source="R__OtMXFOcVmuzIkH4cY-7" target="R__OtMXFOcVmuzIkH4cY-14">
          <mxGeometry relative="1" as="geometry" />
        </mxCell>
        <mxCell id="R__OtMXFOcVmuzIkH4cY-7" value="turtlesim_velocity_transformer" style="rounded=0;whiteSpace=wrap;html=1;" vertex="1" parent="1">
          <mxGeometry x="225" y="420" width="180" height="50" as="geometry" />
        </mxCell>
        <mxCell id="R__OtMXFOcVmuzIkH4cY-33" style="edgeStyle=orthogonalEdgeStyle;rounded=0;orthogonalLoop=1;jettySize=auto;html=1;entryX=0.5;entryY=0;entryDx=0;entryDy=0;" edge="1" parent="1" source="R__OtMXFOcVmuzIkH4cY-14" target="R__OtMXFOcVmuzIkH4cY-6">
          <mxGeometry relative="1" as="geometry" />
        </mxCell>
        <mxCell id="R__OtMXFOcVmuzIkH4cY-14" value="Turtle sim" style="ellipse;whiteSpace=wrap;html=1;" vertex="1" parent="1">
          <mxGeometry x="270" y="520" width="90" height="50" as="geometry" />
        </mxCell>
        <mxCell id="R__OtMXFOcVmuzIkH4cY-17" value="&lt;b&gt;Optional launch mode:&lt;/b&gt;&lt;div&gt;simulation enabled&lt;/div&gt;" style="text;html=1;align=left;verticalAlign=middle;whiteSpace=wrap;rounded=0;" vertex="1" parent="1">
          <mxGeometry x="153" y="370" width="135" height="40" as="geometry" />
        </mxCell>
        <mxCell id="R__OtMXFOcVmuzIkH4cY-19" value="/cmd_vel" style="text;html=1;align=center;verticalAlign=middle;whiteSpace=wrap;rounded=0;" vertex="1" parent="1">
          <mxGeometry x="313" y="327" width="60" height="30" as="geometry" />
        </mxCell>
        <mxCell id="R__OtMXFOcVmuzIkH4cY-20" value="/target_pose_gui" style="text;html=1;align=center;verticalAlign=middle;whiteSpace=wrap;rounded=0;" vertex="1" parent="1">
          <mxGeometry x="30" y="180" width="105" height="30" as="geometry" />
        </mxCell>
        <mxCell id="R__OtMXFOcVmuzIkH4cY-21" value="/target_pose_clock" style="text;html=1;align=center;verticalAlign=middle;whiteSpace=wrap;rounded=0;" vertex="1" parent="1">
          <mxGeometry x="178" y="180" width="110" height="30" as="geometry" />
        </mxCell>
        <mxCell id="R__OtMXFOcVmuzIkH4cY-23" value="&lt;b&gt;Desired pose sources&lt;/b&gt;" style="text;html=1;align=center;verticalAlign=middle;whiteSpace=wrap;rounded=0;" vertex="1" parent="1">
          <mxGeometry x="23" y="100" width="130" height="30" as="geometry" />
        </mxCell>
        <mxCell id="R__OtMXFOcVmuzIkH4cY-25" value="/turtle1/pose" style="text;html=1;align=center;verticalAlign=middle;whiteSpace=wrap;rounded=0;" vertex="1" parent="1">
          <mxGeometry x="308" y="565" width="90" height="30" as="geometry" />
        </mxCell>
        <mxCell id="R__OtMXFOcVmuzIkH4cY-27" value="&lt;span style=&quot;white-space: normal;&quot;&gt;/cur_pose&lt;/span&gt;" style="text;html=1;align=center;verticalAlign=middle;whiteSpace=wrap;rounded=0;" vertex="1" parent="1">
          <mxGeometry x="317" y="656" width="60" height="30" as="geometry" />
        </mxCell>
        <mxCell id="R__OtMXFOcVmuzIkH4cY-28" value="/turtle1/cmd_vel" style="text;html=1;align=center;verticalAlign=middle;whiteSpace=wrap;rounded=0;" vertex="1" parent="1">
          <mxGeometry x="316" y="467" width="94" height="30" as="geometry" />
        </mxCell>
        <mxCell id="R__OtMXFOcVmuzIkH4cY-32" value="&lt;span style=&quot;white-space: normal;&quot;&gt;/cur_pose&lt;/span&gt;" style="text;html=1;align=center;verticalAlign=middle;whiteSpace=wrap;rounded=0;" vertex="1" parent="1">
          <mxGeometry x="343" y="234" width="60" height="30" as="geometry" />
        </mxCell>
      </root>
    </mxGraphModel>
  </diagram>
</mxfile>
